<?xml version="1.0" encoding="utf-8"?>
<!-- Generator: Adobe Illustrator 23.0.3, SVG Export Plug-In . SVG Version: 6.00 Build 0)  -->
<svg version="1.1" id="레이어_1" xmlns="http://www.w3.org/2000/svg" xmlns:xlink="http://www.w3.org/1999/xlink" x="0px"
	 y="0px" viewBox="0 0 266.5 102" style="enable-background:new 0 0 266.5 102;" xml:space="preserve">
<style type="text/css">
	.st0{fill:#4694D1;}
	.st1{fill:#F6AB00;}
	.st2{fill:#727171;}
</style>
<path class="st0" d="M18.9,86c0,3.3,1.6,4.8,4.8,4.8c3.1,0,4.8-1.6,4.8-4.8V69.8c0-19,6.6-34.4,30.2-34.4C82,35.4,89,50.8,89,69.8
	v26c0,2.8-2.2,5-5,5c-2.8,0-5-2.2-5-5v-26c0-14.6-5.9-24.4-20.2-24.4c-14.7,0-20.2,9.7-20.2,24.4v15.8c0,0.1,0,0.2,0,0.4h0
	c0,10-6.7,14.8-14.8,14.8S8.9,96.6,8.9,86v0V41.1v-4.3c0-2.8,2.2-5,5-5s5,2.2,5,5v4.3V86z"/>
<g>
	<path class="st1" d="M13.9,27.1c-7.4,0-13.4-6-13.4-13.4s6-13.4,13.4-13.4s13.4,6,13.4,13.4S21.3,27.1,13.9,27.1z M13.9,7.8
		c-3.2,0-5.9,2.6-5.9,5.9s2.6,5.9,5.9,5.9s5.9-2.6,5.9-5.9S17.2,7.8,13.9,7.8z"/>
</g>
<path class="st2" d="M125.4,36c3.9,0,7.3,0.4,10.2,1.3c2.9,0.9,5.3,2.1,7.3,3.5c1,0.7,1.6,1.6,1.7,2.6c0.1,1-0.1,2.1-0.8,3.1
	c-0.6,0.9-1.4,1.5-2.3,1.8c-0.9,0.3-1.9,0.1-2.8-0.5c-1.9-1.2-3.9-2.1-6-2.7c-2.1-0.6-4.6-0.9-7.5-0.9c-5.5,0-9.6,1.9-12.4,5.6
	c-2.8,3.7-4.2,9.6-4.2,17.6v2.8c0,7.9,1.3,13.7,4,17.5c2.7,3.8,6.9,5.6,12.6,5.6c3.1,0,5.9-0.4,8.3-1.2c2.4-0.8,4.6-2,6.6-3.5
	c0.9-0.7,1.9-0.9,2.9-0.8c1,0.1,1.8,0.7,2.5,1.7c0.7,1,1,2.1,0.9,3.3c-0.1,1.2-0.7,2.2-1.8,3c-2.4,1.9-5.2,3.3-8.5,4.3
	c-3.3,1-6.9,1.5-11,1.5c-8.1,0-14.3-2.5-18.6-7.5c-4.3-5-6.5-12.8-6.5-23.2v-4.2c0-10.5,2.2-18.2,6.6-23.2
	C111,38.5,117.2,36,125.4,36z"/>
<path class="st2" d="M164.2,37.1c0.7,0.1,1.3,0.5,1.8,0.9c0.5,0.5,1.1,1.2,1.6,2.1s1.1,2.1,1.6,3.6l15.2,36l14.8-35.9
	c0.5-1.4,1-2.6,1.5-3.5s1.1-1.6,1.6-2.1c0.6-0.5,1.2-0.9,1.9-1s1.5-0.3,2.5-0.3h1.3c2.1,0,3.6,0.5,4.4,1.4c0.8,0.9,1.2,2.6,1.2,5
	v54.4c0,1.3-0.4,2.2-1.2,2.7c-0.8,0.6-1.7,0.9-2.8,0.9c-1.1,0-2-0.3-2.9-0.9c-0.8-0.6-1.2-1.5-1.2-2.7v-52c-0.6,2.2-1.2,4-1.7,5.5
	c-0.5,1.5-1,3-1.7,4.5l-13.2,31.2c-0.6,1.4-1.2,2.4-1.9,2.9c-0.7,0.5-1.6,0.8-2.7,0.8c-1.3,0-2.3-0.3-3.1-0.8c-0.7-0.5-1.4-1.6-2-3
	l-13-31c-0.6-1.4-1.2-2.9-1.8-4.4c-0.5-1.5-1.1-3.4-1.8-5.5v52c0,1.3-0.4,2.2-1.2,2.7c-0.8,0.6-1.8,0.9-2.9,0.9c-1,0-2-0.3-2.8-0.9
	c-0.8-0.6-1.2-1.5-1.2-2.7V43.2c0-2.4,0.4-4,1.3-5c0.9-0.9,2.3-1.4,4.5-1.4h1.3C162.7,36.8,163.5,36.9,164.2,37.1z"/>
<path class="st2" d="M244.8,36c6.5,0,11.8,1.2,16,3.7c1,0.5,1.6,1.3,1.9,2.4c0.3,1,0.1,2.1-0.4,3.1c-0.6,1.1-1.3,1.7-2.1,2
	c-0.9,0.3-1.8,0.2-2.7-0.3c-1.8-1-3.7-1.7-5.7-2.1c-2-0.4-4.2-0.7-6.7-0.7c-2,0-3.8,0.2-5.4,0.7c-1.6,0.5-2.9,1.1-4,2
	c-1.1,0.8-1.9,1.8-2.5,2.9c-0.6,1.1-0.9,2.3-0.9,3.5v0.9c0,1.3,0.2,2.5,0.6,3.4c0.4,1,1.1,1.9,2.1,2.7c1,0.8,2.4,1.5,4.2,2.2
	c1.7,0.6,4,1.2,6.6,1.8c3.8,0.8,6.9,1.8,9.5,2.9c2.6,1.1,4.7,2.3,6.3,3.8c1.6,1.5,2.7,3.2,3.4,5.1c0.7,1.9,1,4.1,1,6.5v1.3
	c0,5.6-1.9,10-5.7,13.2c-3.8,3.2-9.2,4.8-16.3,4.8c-3.6,0-7.1-0.5-10.4-1.5c-3.3-1-6.2-2.3-8.5-3.9c-1.1-0.7-1.7-1.5-1.8-2.6
	c-0.1-1.1,0.1-2.2,0.7-3.2c0.6-1,1.4-1.7,2.3-1.9c0.9-0.3,1.9-0.1,2.8,0.6c2.2,1.4,4.5,2.5,7.1,3.3c2.6,0.8,5.3,1.2,8.2,1.2
	c4.3,0,7.5-0.9,9.7-2.7c2.2-1.8,3.3-4,3.3-6.7v-1c0-1.5-0.2-2.8-0.7-3.9c-0.5-1.1-1.2-2.1-2.3-2.9c-1.1-0.8-2.5-1.6-4.3-2.2
	c-1.8-0.6-4-1.2-6.6-1.8c-3.4-0.7-6.3-1.5-8.8-2.5c-2.5-0.9-4.5-2.1-6.2-3.4c-1.6-1.4-2.8-3-3.6-5c-0.8-1.9-1.2-4.3-1.2-7.1v-1.1
	c0-2.4,0.5-4.7,1.4-6.9c0.9-2.1,2.3-4,4.1-5.5c1.8-1.6,4-2.8,6.6-3.6C238.5,36.5,241.4,36,244.8,36z"/>
</svg>
